<?xml version="1.0" encoding="utf-8"?>
<!-- Generator: Adobe Illustrator 18.1.1, SVG Export Plug-In . SVG Version: 6.00 Build 0)  -->
<!DOCTYPE svg PUBLIC "-//W3C//DTD SVG 1.1//EN" "http://www.w3.org/Graphics/SVG/1.1/DTD/svg11.dtd">
<svg version="1.1" xmlns="http://www.w3.org/2000/svg" xmlns:xlink="http://www.w3.org/1999/xlink" x="0px" y="0px"
	 viewBox="0 0 1700 1700" enable-background="new 0 0 1700 1700" xml:space="preserve">
<g id="Calque_1">
	<path fill="#FFFFFF" d="M850,25C394.3,25,25,394.4,25,850c0,455.6,369.3,825,825,825c455.6,0,825-369.4,825-825
		C1675,394.4,1305.6,25,850,25z M1583.2,1030.8c-80.8,344.5-383.9,584.7-738.4,584.7c-418.3,0-758.6-340.4-758.6-758.8
		c0-360,255.5-672.4,607.8-743.4l0.1,0c0,0,0,0,0.1,0c0.5-0.1,1-0.2,1.5-0.3c0.5-0.1,0.9,0,1.4-0.1c1.7-0.3,3.5-0.5,5.2-0.5
		c0.9,0,1.7-0.2,2.6-0.1c0.7,0.1,1.3,0.2,1.9,0.2c0.2,0,0.4,0.1,0.6,0.1c1.5,0.2,3.2,0.3,4.6,0.7c3,0.7,5.8,1.7,8.4,3
		c0.3,0.2,0.4,0.2,0.7,0.3c3.6,1.8,7,4,10,7.1L917,315.3c0.1,0,0.1,0,0.1,0L1575,991.1c9.8,10.1,13.2,24.8,9,38.1
		C1583.8,1029.8,1583.4,1030.3,1583.2,1030.8z"/>
	<path fill="#FFFFFF" d="M775.8,1400.3c-1,34-9.3,63.2-18,93.8c-0.9,3-2.2,6.1-3.3,9.2c-52.8-7.2-103.7-20.6-151.8-39.4
		c7.1-42.7-6.9-89.9-42.1-125.1c-51.6-51.7-129.6-58.6-180-18.1c-27.4-26.6-52.5-55.6-75-86.5c5.3-6.6,10.5-13.2,16.5-19.1
		c26.5-26.6,57.8-48.3,92.2-62c34.4-13.5,71.2-20.4,107.6-18.8c72.8,2,140.8,35.7,186.3,86.3c45.9,50.5,69.7,116.5,67.5,180.6
		V1400.3L775.8,1400.3z"/>
	<path fill="#FFFFFF" d="M1125.1,1448.4c-71.2,32.8-149.1,53.3-230.7,59.2c9.8-36.3,11.7-74.9,8.7-110.4v-0.8
		c-4-48.3-17.5-95.8-39.6-138.2c-22.3-42.3-52.8-79.6-89-109.2c-36.1-29.5-77.6-51.5-121.4-64.7c-43.7-13-89.4-17.2-133.5-13.1
		c-88.6,8.2-171.5,50.6-228.3,115.2c-3.5,3.9-6.6,8.1-9.9,12.1c-28.3-44.5-51.3-92.7-68.4-143.5c17.3-17.8,35.6-34.4,55.1-49.6
		C382.3,916,531.5,875.5,669.8,895.2c140.7,18.2,267.3,93.1,349.4,201.1c40.8,53.9,71.8,114.5,89.4,178.6
		C1124.2,1331.5,1129.7,1390.4,1125.1,1448.4"/>
	<path fill="#FFFFFF" d="M1276.7,1351.6c-14.2-95.6-21.5-201.4-74.7-280.5c-125.4-33-261.3-98.6-372.7-218.3
		c-10.6-11.3-20.9-22.9-30.7-34.6c-31.8-6.4-88.3-10.5-120.1-11.8c-82.8-3.6-163.7,9-239.9,36.1c-75.9,27.2-145.6,69.3-204.4,122.7
		c-12.9,11.6-25,23.8-36.7,36.4c-11.8-47.8-18.2-97.7-19-148.8c68.1-58.2,144.7-105.6,226.7-139.3c82.8-34.5,193.2-61.2,281.7-67
		c-15.6-30.6-25.8-54.4-36.6-85c-87.5,15.6-198,43.4-276.9,82.2c-69,34-133.1,76.9-191.1,126.6c29.5-266.9,218.3-492.8,476.9-567.5
		c-0.3,2.1-0.5,4.3-0.7,6.4c-1.2,9-2.2,17.9-3.1,26.9c-0.5,4.4-1,8.7-1.4,13.2c-1.1,13.3-2,26.7-2.3,40c-0.5,17.5-0.2,34.8,0.5,52.1
		c0.2,5.9,0.4,11.8,0.7,17.7c0.7,10.4,1.6,20.8,2.7,31l0.1,1.1c6.1,55.5,18.4,109.3,36.1,160.6c-0.1,0-0.2,0-0.3,0.1
		c11.7,34.2,26,67.6,42.7,99.7c0.2,0,0.5,0,0.7,0c39.2,75.3,91.1,143.1,152.8,200.6l-1.1-0.4c61.6,57.7,131.6,103.9,207.3,137.1
		c-0.3-0.3-0.6-0.7-0.9-1c85.2,37.7,179.1,60,277.9,62.9c6.9,0.2,13.8,0.3,20.7,0.3c9.8,0,19.7-0.3,29.5-0.8
		c12.1,20.1,23.1,40.7,33.4,61.7C1413.6,1205.9,1352.3,1287.4,1276.7,1351.6"/>
</g>
<g id="Layer_2">
</g>
</svg>
